<?xml version="1.0" ?><svg viewBox="0 0 96 96" xmlns="http://www.w3.org/2000/svg"><title/><g id="Wishlist"><path d="M83.5,25a9,9,0,0,0-15-6.69,8.91,8.91,0,0,0-6-2.3h-27A8.51,8.51,0,0,0,27,24.5V62H24.5a8.5,8.5,0,0,0,0,17h36A8.51,8.51,0,0,0,69,70.5V43.22L80.87,31.35A9,9,0,0,0,83.5,25ZM28,24.5A7.5,7.5,0,0,1,35.5,17H58.36a.05.05,0,0,1,0,0,9.13,9.13,0,0,0-1,.64l-.22.16a10.42,10.42,0,0,0-.95.81,9.57,9.57,0,0,0-1.58,2.13,9,9,0,0,0-1,4.23h0a9,9,0,0,0,2.63,6.36L68,43.22V62H28ZM24.5,78a7.5,7.5,0,0,1,0-15h32a8.49,8.49,0,0,0,0,15ZM68,70.5A7.5,7.5,0,1,1,60.5,63H68Zm.5-28.19L56.84,30.65A8,8,0,0,1,68.15,19.34a.48.48,0,0,0,.7,0A8,8,0,0,1,80.16,30.65Z"/><circle cx="37.5" cy="52.5" r="1.5"/><path d="M58.5,52h-16a.5.5,0,0,0,0,1h16a.5.5,0,0,0,0-1Z"/><circle cx="37.5" cy="43.5" r="1.5"/><path d="M58.5,43h-16a.5.5,0,0,0,0,1h16a.5.5,0,0,0,0-1Z"/><circle cx="37.5" cy="34.5" r="1.5"/><path d="M42.5,35h13a.5.5,0,0,0,0-1h-13a.5.5,0,0,0,0,1Z"/><circle cx="37.5" cy="25.5" r="1.5"/><path d="M42.5,26h7a.5.5,0,0,0,0-1h-7a.5.5,0,0,0,0,1Z"/></g></svg>